<svg xmlns="http://www.w3.org/2000/svg" width="960" height="540" viewBox="0 0 960 540" role="img" aria-labelledby="title desc">
  <title id="title">TCS logo</title>
  <desc id="desc">Stylized TCS logo with Tata Consultancy Services text.</desc>
  <rect width="960" height="540" rx="28" fill="#ffffff"/>
  <defs>
    <linearGradient id="tcsGradient" x1="190" y1="190" x2="480" y2="365" gradientUnits="userSpaceOnUse">
      <stop stop-color="#ffbe00"/>
      <stop offset="0.22" stop-color="#ff5a00"/>
      <stop offset="0.44" stop-color="#f40028"/>
      <stop offset="0.72" stop-color="#ec248f"/>
      <stop offset="1" stop-color="#7700a7"/>
    </linearGradient>
  </defs>
  <path d="M188 190v-56c0-16 13-29 29-29s29 13 29 29v56h40c16 0 27 11 27 27s-11 27-27 27h-40v96c0 34 18 54 48 54 18 0 31-5 44-14 15-10 32-5 40 10 7 14 3 29-10 39-22 17-48 26-79 26-65 0-101-39-101-111V244h-18c-15 0-26-11-26-27s11-27 26-27h18Zm173 134c0-78 62-139 144-139 35 0 67 10 93 28 15 10 18 28 9 42-10 15-28 17-43 8-17-10-36-16-59-16-45 0-79 34-79 77s34 77 79 77c23 0 42-6 59-17 15-9 33-7 43 8 9 14 6 32-9 42-26 18-58 28-93 28-82 0-144-60-144-138Zm262 88c-13-11-14-29-3-42 11-12 29-13 43-4 22 15 44 22 68 22 28 0 43-11 43-29 0-20-25-26-59-35-43-11-88-28-88-80 0-51 43-84 103-84 32 0 63 9 89 26 15 10 18 28 8 42-9 14-27 17-42 9-20-11-39-16-58-16-25 0-39 10-39 27 0 19 25 25 58 34 44 12 90 30 90 82 0 55-45 86-108 86-39 0-77-13-105-38Z" fill="url(#tcsGradient)"/>
  <g fill="#0071bc" font-family="Arial, Helvetica, sans-serif" font-weight="800">
    <text x="610" y="240" font-size="52">TATA</text>
    <text x="610" y="300" font-size="46">CONSULTANCY</text>
    <text x="610" y="360" font-size="46">SERVICES</text>
  </g>
</svg>
